<svg height="512" width="512" xmlns="http://www.w3.org/2000/svg"><path d="M428.136 454.297H83.865a5.02 5.02 0 01-5.022-5.021V24.188a5.02 5.02 0 015.022-5.021h344.271a5.02 5.02 0 015.021 5.021v425.088a5.02 5.02 0 01-5.021 5.021zm-339.25-10.043h334.228V29.209H88.886v415.045z"/><path d="M387.789 179.517H124.215c-9.218 0-16.721-7.55-16.721-16.831V70.4c0-9.282 7.502-16.831 16.721-16.831h263.574c9.217 0 16.716 7.549 16.716 16.831v92.286c0 9.281-7.499 16.831-16.716 16.831zM124.215 63.611c-3.684 0-6.678 3.047-6.678 6.789v92.286c0 3.741 2.994 6.788 6.678 6.788h263.574c3.677 0 6.674-3.047 6.674-6.788V70.4c0-3.742-2.997-6.789-6.674-6.789H124.215z"/><path d="M179.036 149.546h-12.284v-10.783h12.284v10.783zm24.556-22.301v22.301h-12.278V88.124h24.265c7.021 0 12.576 1.768 16.519 5.313 4.094 3.691 5.993 8.416 5.993 14.172 0 5.908-1.899 10.632-5.993 14.323-3.943 3.546-9.498 5.313-16.519 5.313h-11.987zm0-9.594h11.986c3.511 0 5.994-.887 7.75-2.805 1.753-1.773 2.629-4.135 2.629-7.086 0-2.957-.876-5.318-2.629-7.384-1.757-1.772-4.24-2.805-7.75-2.805h-11.986v20.08zm76.456 15.799c0-2.363-.875-4.282-2.482-5.611-1.758-1.476-4.679-2.805-8.772-4.135-7.309-2.07-12.718-4.578-16.374-7.529-3.802-2.805-5.555-6.794-5.555-11.815 0-5.016 2.044-9.15 6.286-12.399 4.241-3.102 9.649-4.724 16.373-4.724 6.577 0 12.132 1.767 16.228 5.313 4.239 3.692 6.284 7.973 6.139 13.292l-.147.291h-11.693c0-2.805-1.022-5.167-2.92-6.788-1.904-1.773-4.533-2.659-7.898-2.659-3.212 0-5.701.735-7.6 2.216-1.758 1.475-2.634 3.244-2.634 5.61 0 1.919 1.023 3.692 2.927 5.017 1.898 1.33 5.117 2.659 9.795 4.14 6.724 1.914 11.841 4.427 15.345 7.523 3.366 3.103 5.118 7.237 5.118 12.259 0 5.167-2.044 9.301-6.14 12.398-4.094 2.957-9.503 4.584-16.373 4.584-6.576 0-12.277-1.773-17.249-5.173-4.971-3.541-7.307-8.264-7.161-14.469v-.292h11.84c0 3.687 1.168 6.346 3.364 7.972 2.19 1.768 5.258 2.508 9.206 2.508 3.364 0 5.994-.589 7.752-1.919 1.75-1.476 2.625-3.248 2.625-5.61zm21.344 16.096V88.124h20.905c7.455 0 13.594 2.357 18.418 7.086 4.825 4.87 7.167 11.074 7.167 18.458v10.183c0 7.534-2.342 13.734-7.167 18.458-4.824 4.87-10.963 7.237-18.418 7.237h-20.905zm12.278-51.975v42.375h8.043c4.387 0 7.746-1.476 10.234-4.432 2.482-2.951 3.797-6.789 3.797-11.664v-10.183c0-4.729-1.314-8.713-3.797-11.669-2.488-2.952-5.848-4.427-10.234-4.427h-8.043zm77.185 376.363H121.29a5.022 5.022 0 110-10.042h269.565a5.018 5.018 0 015.021 5.021 5.018 5.018 0 01-5.021 5.021zm-23.971 18.9H145.116a5.02 5.02 0 110-10.042h221.768c2.775 0 5.021 2.246 5.021 5.021s-2.246 5.021-5.021 5.021zm-74.85-130.672a5.031 5.031 0 01-3.48-1.404c-17.208-16.57-38.458-32.59-60.956-49.553-41.904-31.586-85.234-64.252-100.564-101.118a5.023 5.023 0 015.94-6.78c39.91 10.732 80.868 50.524 120.478 89.001 18.383 17.863 35.751 34.736 52.715 48.537a5.017 5.017 0 011.837 3.479 5.043 5.043 0 01-1.243 3.738l-10.964 12.404a5.017 5.017 0 01-3.562 1.689c-.064.007-.135.007-.201.007zM141.619 216.841c17.715 30.328 55.427 58.759 92.022 86.347 20.211 15.24 41.064 30.953 58.067 46.742l4.089-4.629c-15.995-13.396-32.233-29.164-49.341-45.791-34.833-33.838-70.737-68.719-104.837-82.669zm202.264 199.901c-15.955 0-26.219-7.813-33.38-14.617-9.286-9.387-13.402-25.035-13.402-36.422 0-1.213.438-2.381 1.234-3.293l11.693-13.438a5.03 5.03 0 014.418-1.688c30.816 3.893 35.123 17.127 39.287 29.93 2.877 8.84 5.591 17.189 17.325 24.719a5.033 5.033 0 012.287 4.668 5.025 5.025 0 01-3.077 4.195c-9.503 3.944-18.377 5.946-26.385 5.946zm-36.704-49.207c.444 10.516 4.572 21.576 10.354 27.418 6.367 6.049 14.056 11.744 26.35 11.744 4.353 0 9.081-.734 14.137-2.199-8.586-8.063-11.446-16.838-13.834-24.176-3.632-11.174-6.296-19.359-28.364-22.713l-8.643 9.926z"/></svg>