<svg width="512" height="512" xmlns="http://www.w3.org/2000/svg">

 <g>
  <title>background</title>
  <rect fill="none" id="canvas_background" height="402" width="582" y="-1" x="-1"/>
 </g>
 <g>
  <title>Layer 1</title>
  <path fill="#ffd15c" id="svg_2" d="m83.2,374.5c10,-8.9 34.1,-27.7 108.8,-61.8c0.5,-0.2 1,-0.5 1.5,-0.7l16.7,-7.5c0.3,-0.1 0.6,-0.3 0.9,-0.4l0,20.3l3.8,32.9c18.1,-5.2 41.2,-10.7 41.2,-10.7l40.4,13.9l4.2,-36.2l0,-20.2c0.5,0.2 0.9,0.4 1.4,0.6l7.8,3.5c5,2.2 9.7,4.4 14.3,6.5c9.6,4.4 18.3,8.5 26.2,12.4c51.6,25.3 69.7,39.8 78.3,47.4c3.4,3 6.6,7.8 9.4,13.8c21.2,-33.4 33.5,-73 33.5,-115.5c0.1,-119.2 -96.5,-215.8 -215.6,-215.8s-215.7,96.6 -215.7,215.8c0,42.5 12.3,82.1 33.5,115.5c2.9,-6 6,-10.7 9.4,-13.8z" class="st0"/>
  <path fill="#dcc5a1" id="svg_3" d="m211.2,222.1l0,102.4c12.3,14.6 28.6,22.1 44.8,22.3l0,-166.2c-22.4,0 -44.8,13.8 -44.8,41.5z" class="st1"/>
  <path fill="#edd9b4" id="svg_4" d="m256,180.6l0,166.1c16.3,0.1 32.5,-7.2 44.8,-22.3l0,-102.3c0,-27.7 -22.4,-41.5 -44.8,-41.5z" class="st2"/>
  <path fill="#bc9f82" clip-rule="evenodd" fill-rule="evenodd" id="svg_5" d="m300.8,220.2l0,65.5c-17,11.8 -33.3,18.4 -44.8,18.4c-11.5,0 -27.9,-6.6 -44.8,-18.4l0,-65.5c0,-52.8 89.6,-52.8 89.6,0" class="st3"/>
  <path fill="#ffffff" id="svg_6" d="m204.4,219.2c0,0 43.6,14.7 98.4,0c0,0 -40.8,49.4 -98.4,0" class="st4"/>
  <path fill="#e5917a" id="svg_7" d="m204.4,219.2c0,0 45.5,15.8 98.4,0c-31.6,-1.6 -25,-3.2 -98.4,0" class="st5"/>
  <path fill="#e5917a" id="svg_8" d="m204.4,219.2c0,0 48.6,47.1 98.4,0c0,0 -10.7,34.1 -46.7,34.2c-36,0.2 -51.7,-34.2 -51.7,-34.2" class="st5"/>
  <path fill="#dcc5a1" id="svg_10" d="m256,38.3c-91.4,0 -107.3,67.1 -103.5,123c-4,-3.4 -8.3,-4.9 -12.1,-3.6c-7.9,2.6 -10.7,15.8 -6.2,29.4c4.5,13.7 14.5,22.6 22.4,20c1,-0.3 2,-0.9 2.8,-1.6c3.7,15.1 7.9,25.9 10,29c10.8,16 62.2,58.3 86.5,58.3l0,0l0.1,-254.5l0,0z" class="st1"/>
  <path fill="#edd9b4" id="svg_11" d="m371.3,157.7c-3.7,-1.2 -7.9,0.1 -11.7,3.3c3.7,-55.9 -12.3,-122.7 -103.6,-122.7l0,254.6c24.3,0 75.7,-42.3 86.5,-58.3c2.1,-3.1 6.2,-13.8 9.9,-28.7c0.8,0.6 1.6,1 2.5,1.3c7.9,2.6 18,-6.4 22.4,-20c4.6,-13.7 1.9,-26.9 -6,-29.5z" class="st2"/>
  <path fill="#422f18" clip-rule="evenodd" fill-rule="evenodd" id="svg_12" d="m187.2,99.1c-8.7,47.7 -30.6,43.2 -28.9,99.2c-7,-43.6 -17.5,-101.7 12.1,-139.9c23.7,-30.6 102.2,-52.4 153,-15.8c56.1,12 38.6,126.3 31.1,147.9c-5.3,-35 -17,-49.6 -31.9,-90.7c-20.1,14.5 -109.5,17.7 -135.4,-0.7" class="st6"/>
  <path fill="#342214" id="svg_14" d="m212.9,158.6c5.8,0 10.6,5.4 10.6,12c0,6.6 -4.7,12 -10.6,12c-5.8,0 -10.6,-5.4 -10.6,-12c0,-6.7 4.7,-12 10.6,-12" class="st7"/>
  <path fill="#342214" id="svg_15" d="m298.7,158.6c5.8,0 10.6,5.4 10.6,12c0,6.6 -4.7,12 -10.6,12c-5.8,0 -10.6,-5.4 -10.6,-12c0.1,-6.7 4.8,-12 10.6,-12" class="st7"/>
  <path fill="#ffffff" id="svg_16" d="m234,234.5c3.8,8.3 12.1,14.1 21.8,14.1c9.7,0 18.1,-5.8 21.8,-14.1l-43.6,0z" class="st4"/>
  <path fill="#3e7ebc" id="svg_17" d="m193.5,312l16.7,-7.5c-5.7,2.6 -11.3,5.1 -16.7,7.5z" class="st8"/>
  <path fill="#3e7ebc" id="svg_18" d="m302.2,304.8l7.8,3.5c-2.5,-1.2 -5.1,-2.3 -7.8,-3.5z" class="st8"/>
  <path fill="#89bce5" id="svg_19" d="m192,312.7l0,0c0.5,-0.2 1,-0.5 1.5,-0.7l-1.5,0.7z" class="st9"/>
  <path fill="#89bce5" id="svg_20" d="m211.2,304.1l-0.9,0.4c0.3,-0.1 0.6,-0.3 0.9,-0.4l0,0z" class="st9"/>
  <path fill="#89bce5" id="svg_21" d="m324.2,314.6l-14.2,-6.3c5,2.2 9.7,4.4 14.3,6.5l-0.1,-0.2z" class="st9"/>
  <path fill="#89bce5" id="svg_22" d="m300.8,304.2l0,0c0.5,0.2 0.9,0.4 1.4,0.6l-1.4,-0.6z" class="st9"/>
  <polygon fill="#be1e2d" id="svg_23" points="256,488.5 256,488.5 256,488.5  " class="st10"/>
  <path fill="#3e7ebc" id="svg_24" d="m137.1,452.8c1.2,-9.4 2,-15.2 2,-15.2s0,6.2 0,16.5c15.7,10.2 32.9,18.3 51.1,24.2l-29.9,-60.7l35.2,-23.5l-43,-20.1l39.5,-61.3c-74.7,34.1 -98.8,52.9 -108.8,61.8c-3.4,3 -6.6,7.8 -9.4,13.8c16.3,25.7 37.9,47.7 63.3,64.5z" class="st8"/>
  <path fill="#3e7ebc" id="svg_25" d="m428.8,374.5c-8.5,-7.6 -26.7,-22.1 -78.3,-47.4c-7.9,-3.9 -16.6,-8 -26.2,-12.4l35,59.3l-43,20.1l35.2,23.5l-29.9,60.8c18.3,-5.8 35.5,-14 51.3,-24.2c0,-10.3 0,-16.5 0,-16.5s0.8,5.7 2,15.2c25.4,-16.8 47,-38.8 63.3,-64.5c-2.9,-6.1 -6,-10.8 -9.4,-13.9z" class="st8"/>
  <path fill="#e6e6e5" id="svg_26" d="m230,486.9l0.1,1.1c0.9,0 1.7,0.1 2.6,0.1l0.1,-0.8c-0.9,-0.1 -1.8,-0.2 -2.8,-0.4z" class="st11"/>
  <path fill="#e6e6e5" id="svg_27" d="m230,486.9c0.9,0.1 1.9,0.2 2.8,0.3l14.7,-103l-12,-16.6l20.6,-21c0,0 -23.1,5.5 -41.2,10.7l15.1,129.6z" class="st11"/>
  <path fill="#e6e6e5" id="svg_28" d="m279.2,487.3l0.1,0.8c0.8,0 1.6,-0.1 2.4,-0.1l0.1,-1c-0.9,0.1 -1.8,0.2 -2.6,0.3z" class="st11"/>
  <path fill="#e6e6e5" id="svg_29" d="m256.2,346.7l19.9,21l-11.8,16.6l0,0l14.7,103c0.9,-0.1 1.8,-0.2 2.7,-0.3l14.8,-126.4l-40.3,-13.9z" class="st11"/>
  <path fill="#89bce5" id="svg_30" d="m215,357.4l-3.8,-32.9l0,-20.3c-0.3,0.1 -0.6,0.3 -0.9,0.4l-16.7,7.5c-0.5,0.2 -1,0.5 -1.5,0.7l-39.6,61.2l43,20.1l-35.2,23.5l29.9,60.7c8.4,2.7 17,4.9 25.8,6.5c4.6,0.9 9.3,1.6 14,2.2l-15,-129.6z" class="st9"/>
  <path fill="#89bce5" id="svg_31" d="m359.3,374l-35,-59.3c-4.6,-2.1 -9.3,-4.3 -14.3,-6.5l-7.8,-3.5c-0.5,-0.2 -0.9,-0.4 -1.4,-0.6l0,20.2l-4.2,36.2l-14.8,126.5c7.2,-0.9 14.3,-2.1 21.3,-3.6c6.3,-1.4 12.4,-3.1 18.5,-5l29.9,-60.8l-35.2,-23.5l43,-20.1z" class="st9"/>
  <path fill="#1b75bc" id="svg_32" d="m264.4,384.3l0,0l11.8,-16.6l-19.9,-21l-20.6,21l12,16.6l-14.7,103c7.6,0.8 15.3,1.2 23.1,1.2c0,0 0,0 0,0c7.8,0 15.5,-0.4 23.1,-1.2l-14.8,-103z" class="st12"/>
  <path fill="#314e67" id="svg_33" d="m137.1,452.8c0.7,0.4 1.3,0.9 2,1.3c0,-10.3 0,-16.5 0,-16.5s-0.8,5.7 -2,15.2z" class="st13"/>
  <path fill="#314e67" id="svg_34" d="m372.9,454.1c0.7,-0.4 1.3,-0.9 2,-1.3c-1.2,-9.4 -2,-15.2 -2,-15.2s0.1,6.2 0,16.5z" class="st13"/>
  <polygon fill="#ffffff" clip-rule="evenodd" fill-rule="evenodd" id="svg_35" points="211.2,290.6 207.2,305.8 218.2,385.2 256.2,346.7  " class="st14"/>
  <polygon fill="#ffffff" clip-rule="evenodd" fill-rule="evenodd" id="svg_36" points="300.8,290.6 303.9,305.6 293.6,386 256.2,346.7  " class="st14"/>
 </g>
</svg>