<?xml version="1.0" ?><!DOCTYPE svg  PUBLIC '-//W3C//DTD SVG 1.1//EN'  'http://www.w3.org/Graphics/SVG/1.1/DTD/svg11.dtd'><svg height="512px" style="enable-background:new 0 0 512 512;" version="1.1" viewBox="0 0 512 512" width="512px" xml:space="preserve" xmlns="http://www.w3.org/2000/svg" xmlns:xlink="http://www.w3.org/1999/xlink"><g id="file__x2C__psd__x2C__photoshop__x2C_"><g id="Layer_51"><g><g><path d="M428.136,454.297H83.865c-2.773,0-5.022-2.246-5.022-5.021V24.188c0-2.775,2.249-5.021,5.022-5.021h344.271      c2.774,0,5.021,2.246,5.021,5.021v425.088C433.156,452.051,430.91,454.297,428.136,454.297z M88.886,444.254h334.228V29.209      H88.886V444.254z"/></g><g><path d="M387.789,179.517H124.215c-9.218,0-16.721-7.55-16.721-16.831V70.4c0-9.282,7.502-16.831,16.721-16.831h263.574      c9.217,0,16.716,7.549,16.716,16.831v92.286C404.505,171.967,397.006,179.517,387.789,179.517z M124.215,63.611      c-3.684,0-6.678,3.047-6.678,6.789v92.286c0,3.741,2.994,6.788,6.678,6.788h263.574c3.677,0,6.674-3.047,6.674-6.788V70.4      c0-3.742-2.997-6.789-6.674-6.789H124.215z"/></g><g><path d="M179.036,149.546h-12.284v-10.783h12.284V149.546z M203.592,127.245v22.301h-12.278V88.124h24.265      c7.021,0,12.576,1.768,16.519,5.313c4.094,3.691,5.993,8.416,5.993,14.172c0,5.908-1.899,10.632-5.993,14.323      c-3.943,3.546-9.498,5.313-16.519,5.313H203.592z M203.592,117.651h11.986c3.511,0,5.994-0.887,7.75-2.805      c1.753-1.773,2.629-4.135,2.629-7.086c0-2.957-0.876-5.318-2.629-7.384c-1.757-1.772-4.24-2.805-7.75-2.805h-11.986V117.651z       M280.048,133.45c0-2.363-0.875-4.282-2.482-5.611c-1.758-1.476-4.679-2.805-8.772-4.135c-7.309-2.07-12.718-4.578-16.374-7.529      c-3.802-2.805-5.555-6.794-5.555-11.815c0-5.016,2.044-9.15,6.286-12.399c4.241-3.102,9.649-4.724,16.373-4.724      c6.577,0,12.132,1.767,16.228,5.313c4.239,3.692,6.284,7.973,6.139,13.292l-0.147,0.291h-11.693c0-2.805-1.022-5.167-2.92-6.788      c-1.904-1.773-4.533-2.659-7.898-2.659c-3.212,0-5.701,0.735-7.6,2.216c-1.758,1.475-2.634,3.244-2.634,5.61      c0,1.919,1.023,3.692,2.927,5.017c1.898,1.33,5.117,2.659,9.795,4.14c6.724,1.914,11.841,4.427,15.345,7.523      c3.366,3.103,5.118,7.237,5.118,12.259c0,5.167-2.044,9.301-6.14,12.398c-4.094,2.957-9.503,4.584-16.373,4.584      c-6.576,0-12.277-1.773-17.249-5.173c-4.971-3.541-7.307-8.264-7.161-14.469v-0.292h11.84c0,3.687,1.168,6.346,3.364,7.972      c2.19,1.768,5.258,2.508,9.206,2.508c3.364,0,5.994-0.589,7.752-1.919C279.173,137.584,280.048,135.812,280.048,133.45      L280.048,133.45z M301.392,149.546V88.124h20.905c7.455,0,13.594,2.357,18.418,7.086c4.825,4.87,7.167,11.074,7.167,18.458      v10.183c0,7.534-2.342,13.734-7.167,18.458c-4.824,4.87-10.963,7.237-18.418,7.237H301.392z M313.67,97.571v42.375h8.043      c4.387,0,7.746-1.476,10.234-4.432c2.482-2.951,3.797-6.789,3.797-11.664v-10.183c0-4.729-1.314-8.713-3.797-11.669      c-2.488-2.952-5.848-4.427-10.234-4.427H313.67z"/></g><g><path d="M390.855,473.934H121.29c-2.773,0-5.022-2.248-5.022-5.021c0-2.775,2.249-5.021,5.022-5.021h269.565      c2.776,0,5.021,2.246,5.021,5.021C395.877,471.686,393.632,473.934,390.855,473.934z"/></g><g><path d="M366.884,492.834H145.116c-2.772,0-5.021-2.246-5.021-5.021s2.249-5.021,5.021-5.021h221.768      c2.775,0,5.021,2.246,5.021,5.021S369.659,492.834,366.884,492.834z"/></g><g><path d="M292.034,362.162c-1.293,0-2.543-0.504-3.48-1.404c-17.208-16.57-38.458-32.59-60.956-49.553      c-41.904-31.586-85.234-64.252-100.564-101.118c-0.735-1.768-0.4-3.797,0.861-5.238c1.262-1.436,3.218-2.034,5.079-1.542      c39.91,10.732,80.868,50.524,120.478,89.001c18.383,17.863,35.751,34.736,52.715,48.537c1.063,0.859,1.721,2.119,1.837,3.479      c0.111,1.365-0.342,2.715-1.243,3.738l-10.964,12.404c-0.907,1.025-2.196,1.637-3.562,1.689      C292.171,362.162,292.1,362.162,292.034,362.162z M141.619,216.841c17.715,30.328,55.427,58.759,92.022,86.347      c20.211,15.24,41.064,30.953,58.067,46.742l4.089-4.629c-15.995-13.396-32.233-29.164-49.341-45.791      C211.623,265.672,175.719,230.791,141.619,216.841z"/></g><g><path d="M343.883,416.742c-15.955,0-26.219-7.813-33.38-14.617c-9.286-9.387-13.402-25.035-13.402-36.422      c0-1.213,0.438-2.381,1.234-3.293l11.693-13.438c1.099-1.264,2.756-1.895,4.418-1.688c30.816,3.893,35.123,17.127,39.287,29.93      c2.877,8.84,5.591,17.189,17.325,24.719c1.571,1.012,2.449,2.811,2.287,4.668c-0.167,1.865-1.35,3.475-3.077,4.195      C360.765,414.74,351.891,416.742,343.883,416.742z M307.179,367.535c0.444,10.516,4.572,21.576,10.354,27.418      c6.367,6.049,14.056,11.744,26.35,11.744c4.353,0,9.081-0.734,14.137-2.199c-8.586-8.063-11.446-16.838-13.834-24.176      c-3.632-11.174-6.296-19.359-28.364-22.713L307.179,367.535z"/></g></g></g></g><g id="Layer_1"/></svg>